{"title":"Donnie Darko-720p MP4 AAC x264 DC BRRip 2001-CC","uid":7932959,"size":3554904814,"categoryP":"video","categoryS":"hd___movies","magnet":"?xt=urn:btih:79cdaede0cbb7aaee784e64140210f792645739d&amp;dn=Donnie+Darko-720p+MP4+AAC+x264+DC+BRRip+2001-CC&amp;tr=udp%3A%2F%2Ftracker.openbittorrent.com%3A80&amp;tr=udp%3A%2F%2Fopen.demonii.com%3A1337&amp;tr=udp%3A%2F%2Ftracker.coppersurfer.tk%3A6969&amp;tr=udp%3A%2F%2Fexodus.desync.com%3A6969","seeders":0,"leechers":1,"uploader":"Caveman44","files":-1,"time":1355763547,"description":" &lt;a href=&quot;http://www.imdb.com/title/tt0246578/&quot; rel=&quot;nofollow&quot; target=&quot;_NEW&quot;&gt;http://www.imdb.com/title/tt0246578/&lt;/a&gt;\n\nSource: Donnie.Darko.2001.DirCut.720p.Blu-Ray.DTS.x264-ESiR Thanks!\n\nSubs: Arabic, Brazilian, Czech, Danish, Dutch, English, Estonian, Finnish, French, German, Greek, Hebrew, Hungarian, Indonesian, Persian, Portuguese, Servian, Slovenian, Spanish, Swedish, Thai, Turkish and Vietnamese.\n\nSample and Screens included.\n\nGeneral\nComplete name                            : Donnie Darko-720p MP4 AAC x264 DC BRRip 2001-CC.mp4\nFormat                                   : MPEG-4\nFormat profile                           : Base Media\nCodec ID                                 : isom\nFile size                                : 3.27 GiB\nDuration                                 : 2h 13mn\nOverall bit rate mode                    : Variable\nOverall bit rate                         : 3 500 Kbps\nEncoded date                             : UTC 2012-12-04 18:31:46\n\nVideo\nID                                       : 1\nFormat                                   : AVC\nFormat/Info                              : Advanced Video Codec\nFormat profile                           : &lt;a class=&quot;__cf_email__&quot; href=&quot;/cdn-cgi/l/email-protection&quot; data-cfemail=&quot;2b63424c436b671f051a&quot;&gt;[email&amp;#160;protected]&lt;/a&gt;&lt;script cf-hash='f9e31' type=&quot;text/javascript&quot;&gt;\n/* &lt;![CDATA[ */!function(){try{var t=&quot;currentScript&quot;in document?document.currentScript:function(){for(var t=document.getElementsByTagName(&quot;script&quot;),e=t.length;e--;)if(t[e].getAttribute(&quot;cf-hash&quot;))return t[e]}();if(t&amp;&amp;t.previousSibling){var e,r,n,i,c=t.previousSibling,a=c.getAttribute(&quot;data-cfemail&quot;);if(a){for(e=&quot;&quot;,r=parseInt(a.substr(0,2),16),n=2;a.length-n;n+=2)i=parseInt(a.substr(n,2),16)^r,e+=String.fromCharCode(i);e=document.createTextNode(e),c.parentNode.replaceChild(e,c)}}}catch(u){}}();/* ]]&gt; */&lt;/script&gt;\nFormat settings, CABAC                   : Yes\nFormat settings, ReFrames                : 5 frames\nCodec ID                                 : avc1\nCodec ID/Info                            : Advanced Video Coding\nDuration                                 : 2h 13mn\nBit rate                                 : 3 173 Kbps\nMaximum bit rate                         : 30.9 Mbps\nWidth                                    : 1 280 pixels\nHeight                                   : 544 pixels\nDisplay aspect ratio                     : 2.35:1\nFrame rate mode                          : Variable\nFrame rate                               : 23.976 fps\nMinimum frame rate                       : 15.873 fps\nMaximum frame rate                       : 24.390 fps\nColor space                              : YUV\nChroma subsampling                       : 4:2:0\nBit depth                                : 8 bits\nScan type                                : Progressive\nBits/(Pixel*Frame)                       : 0.190\nStream size                              : 2.91 GiB (89%)\nWriting library                          : x264 core 112\n\nAudio\nID                                       : 2\nFormat                                   : AAC\nFormat/Info                              : Advanced Audio Codec\nFormat profile                           : LC\nCodec ID                                 : 40\nDuration                                 : 2h 13mn\nBit rate mode                            : Variable\nBit rate                                 : 384 Kbps\nMaximum bit rate                         : 596 Kbps\nChannel(s)                               : 6 channels\nChannel positions                        : Front: L C R, Side: L R, LFE\nSampling rate                            : 48.0 KHz\nCompression mode                         : Lossy\nDelay relative to video                  : 83ms\nStream size                              : 368 MiB (11%)\nLanguage                                 : English\n\nEnjoy...\n\nRequested by aartje80\n\nComing soon: Buffalo 66, Blade Trilogy, The Lord of the Rings 1978 and more...","torrent":{"xt":"urn:btih:79cdaede0cbb7aaee784e64140210f792645739d","amp;dn":"Donnie+Darko-720p+MP4+AAC+x264+DC+BRRip+2001-CC","amp;tr":["udp%3A%2F%2Ftracker.openbittorrent.com%3A80","udp%3A%2F%2Fopen.demonii.com%3A1337","udp%3A%2F%2Ftracker.coppersurfer.tk%3A6969","udp%3A%2F%2Fexodus.desync.com%3A6969"],"infoHash":"79cdaede0cbb7aaee784e64140210f792645739d","infoHashBuffer":{"type":"Buffer","data":[121,205,174,222,12,187,122,174,231,132,230,65,64,33,15,121,38,69,115,157]},"announce":[],"urlList":[]}}